# xmcd
#
# Track frame offsets:
#	150
#	2420
#	21293
#	41451
#	42542
#	81766
#	83488
#	111413
#	141570
#	153230
#	165199
#	216797
#	222318
#	250962
#	288968
#
# Disc length: 3931 seconds
#
# Revision: 0
# Processed by: cddbd v1.5.2PL0 Copyright (c) Steve Scherf et al.
# Submitted via: EZCDAudioConverter 2.1.7.1
#
DISCID=c50f590f
DTITLE=King Crimson - The Elements 1/2
DYEAR=1900
DGENRE=
TTITLE0=Wind Extract
TTITLE1=I Talk To The Wind
TTITLE2=Cadence And Cascade
TTITLE3=Cirkus [Guitar Extract]
TTITLE4=Cirkus [Live]
TTITLE5=Hoodoo [Extract]
TTITLE6=Sailor's Tale
TTITLE7=The Talking Drum
TTITLE8=Larks' Tongues In Aspic (Part 1) [Extract]
TTITLE9=Larks' Tongues In Aspic (Part 1) [Extract – David/Jamie]
TTITLE10=Fracture [Live]
TTITLE11=Fallen Angel [Extract – RF Harmonics]
TTITLE12=Fallen Angel
TTITLE13=21st Century Schizoid Man [Live]
TTITLE14=Starless [Extract – Mark]
EXTD=
EXTT0=
EXTT1=
EXTT2=
EXTT3=
EXTT4=
EXTT5=
EXTT6=
EXTT7=
EXTT8=
EXTT9=
EXTT10=
EXTT11=
EXTT12=
EXTT13=
EXTT14=
PLAYORDER=
